<?xml version="1.0" standalone="no"?><!DOCTYPE svg PUBLIC "-//W3C//DTD SVG 1.1//EN" "http://www.w3.org/Graphics/SVG/1.1/DTD/svg11.dtd"><svg t="1565343034309" class="icon" viewBox="0 0 1024 1024" version="1.1" xmlns="http://www.w3.org/2000/svg" p-id="1920" xmlns:xlink="http://www.w3.org/1999/xlink" width="200" height="200"><defs><style type="text/css"></style></defs><path d="M703.5 808.3h-17.3l68.8 98.1 34.4 49.1c3.8 5.5 13.5 5.5 17.3 0l34.4-49.1 68.8-98.1H703.5zM686.2 190.8h54.4v576.9h-54.4zM890.1 64.2H706.2c-11 0-20 9-20 20v70.7h223.9V84.2c0-11-9-20-20-20zM776.6 190.8h133.5v576.9H776.6z" fill="#3374FF" p-id="1921"></path><path d="M734.9 933.1l-85.3-119.4-58.7 41.8c-2.5 1.8-5.9 1.2-7.7-1.3s-1.2-5.9 1.3-7.7l58.7-41.8-52.5-73.5-58.6 41.7c-2.5 1.8-5.9 1.2-7.7-1.3-1.8-2.5-1.2-5.9 1.3-7.7l58.5-41.7-52.5-73.5-58.4 41.6c-2.5 1.8-5.9 1.2-7.7-1.3-1.8-2.5-1.2-5.9 1.3-7.7l58.4-41.5-52.3-73.4-58.2 41.5c-2.5 1.8-5.9 1.2-7.7-1.3-1.8-2.5-1.2-5.9 1.3-7.7l58.2-41.4-52.5-73.5-58.1 41.3c-2.5 1.8-5.9 1.2-7.7-1.3-1.8-2.5-1.2-5.9 1.3-7.7l58.1-41.3-52.5-73.5-57.9 41.2c-2.5 1.8-5.9 1.2-7.7-1.3-1.8-2.5-1.2-5.9 1.3-7.7l57.9-41.2-52.5-73.5-57.8 41.1c-2.5 1.8-5.9 1.2-7.7-1.3-1.8-2.5-1.2-5.9 1.3-7.7l57.8-41.1-52.5-73.5-57.6 41c-2.5 1.8-5.9 1.2-7.7-1.3s-1.2-5.9 1.3-7.7l57.6-41-86.4-120.9c-9.6-13.4-30.7-6.6-30.7 9.8v826.2c0 9.3 7.6 16.9 16.9 16.9h590.3c13.8 0.3 21.8-15.2 13.8-26.4z m-229.5-87.4H232.5c-4.3 0-7.8-3.5-7.8-7.8V456c0-7.6 9.8-10.7 14.2-4.5l272.8 381.9c3.7 5.1 0 12.3-6.3 12.3z" fill="#FEC832" p-id="1922"></path></svg>